PathFileType  4	(X/Y/Z) C:\Users\antoi\Documents\MyRepositories\mobilecap\ResultsAnalysis
DataRate	CameraRate	NumFrames	NumMarkers	Units	OrigDataRate	OrigDataStartFrame	OrigNumFrames
100.0	100.0	6	51	mm	100.0	656	1747
Frame#	Time	r_knee			r_shank_antsup			r_ankle			r_calc			r_5meta			r_toe			L_knee			L_shank_antsup			L_ankle			L_calc			L_5meta			L_toe			r_sh2			r_sh3			r_sh4			L_sh2			L_sh3			r_thigh1			r_thigh2			r_thigh3			r_thigh4			r_thigh5			L_thigh1			L_thigh2			L_thigh3			L_thigh4			r.ASIS			r.PSIS			L.ASIS			L.PSIS			C7			R_Shoulder			L_Shoulder			R_Sternum			L_Sternum			R_humerus			R_elbow_med			R_elbow_lat			R_forearm			R_wrist_radius			R_wrist_ulna			L_humerus			L_elbow_med			L_elbow_lat			L_forearm			L_wrist_radius			L_wrist_ulna			R_HJC			L_HJC			R_HJC_reg			L_HJC_reg			
		X1	Y1	Z1	X2	Y2	Z2	X3	Y3	Z3	X4	Y4	Z4	X5	Y5	Z5	X6	Y6	Z6	X7	Y7	Z7	X8	Y8	Z8	X9	Y9	Z9	X10	Y10	Z10	X11	Y11	Z11	X12	Y12	Z12	X13	Y13	Z13	X14	Y14	Z14	X15	Y15	Z15	X16	Y16	Z16	X17	Y17	Z17	X18	Y18	Z18	X19	Y19	Z19	X20	Y20	Z20	X21	Y21	Z21	X22	Y22	Z22	X23	Y23	Z23	X24	Y24	Z24	X25	Y25	Z25	X26	Y26	Z26	X27	Y27	Z27	X28	Y28	Z28	X29	Y29	Z29	X30	Y30	Z30	X31	Y31	Z31	X32	Y32	Z32	X33	Y33	Z33	X34	Y34	Z34	X35	Y35	Z35	X36	Y36	Z36	X37	Y37	Z37	X38	Y38	Z38	X39	Y39	Z39	X40	Y40	Z40	X41	Y41	Z41	X42	Y42	Z42	X43	Y43	Z43	X44	Y44	Z44	X45	Y45	Z45	X46	Y46	Z46	X47	Y47	Z47	X48	Y48	Z48	X49	Y49	Z49	X50	Y50	Z50	X51	Y51	Z51	

656	6.55000000	-197.47636	529.17931	-392.62111	-141.95941	412.79147	-398.43686	-283.77478	102.13233	-407.81654	-347.43869	67.97619	-461.41212	-163.53964	38.64219	-343.48219	-116.22375	61.19361	-410.34539	-192.20641	519.64803	-905.20763	-126.94013	426.90701	-890.95638	-254.15714	93.83760	-887.26190	-321.34831	69.24975	-841.74266	-113.81470	35.25978	-907.38331	-86.46582	61.32743	-837.75619	-158.05627	299.24959	-419.10604	-209.93229	413.02709	-359.89216	-218.36480	296.28805	-359.65355	-209.05909	436.69940	-928.22568	-203.14145	315.44948	-942.28053	-419.64573	621.76886	-480.47603	-309.09796	628.83878	-465.93395	-292.32419	610.53427	-403.54462	-427.92641	558.66800	-387.16738	-308.09869	561.82340	-379.58201	-436.60092	604.21874	-851.63972	-299.88659	617.61614	-870.52163	-434.10472	509.12763	-912.38357	-296.52173	519.18029	-924.92004	-584.96780	608.47645	-528.08913	-762.26536	562.46648	-606.68579	-582.23406	604.59210	-798.34896	-758.92511	561.78459	-702.62196	-691.00376	1087.41805	-646.67220	-618.92615	1007.12638	-465.14196	-603.18345	1041.03942	-815.97377	-558.48226	997.78353	-625.20024	-559.03708	995.42745	-666.83120	-579.44668	860.76213	-382.57832	-591.09174	626.39733	-383.75979	-557.64060	673.50314	-310.80954	-445.44915	748.19317	-410.80112	-360.44736	784.72475	-488.09641	-330.98420	755.00368	-476.88611	-572.65157	884.43995	-909.13315	-624.75749	656.40553	-913.23657	-571.02908	694.04188	-968.46276	-477.72172	758.97400	-849.37027	-381.57084	781.69560	-781.73297	-356.67218	745.47145	-802.02687	-612.71309	505.83111	-560.86793	-609.22908	492.98178	-773.84601	-616.51871	504.86499	-567.07984	-610.31308	503.59704	-745.36514	
657	6.56000000	-198.86069	529.49644	-392.38212	-142.96260	413.25633	-398.17465	-283.70025	102.20864	-407.64262	-347.44082	68.01261	-461.41231	-163.50494	38.60757	-343.47358	-116.12560	61.27253	-410.27566	-193.10641	519.90050	-905.23108	-127.71918	427.21637	-891.04858	-254.11616	93.90382	-887.29865	-321.31809	69.26640	-841.74561	-113.80518	35.29161	-907.36517	-86.45536	61.34841	-837.73971	-158.68814	299.75483	-418.82361	-210.93955	413.07684	-359.95297	-219.17142	296.55519	-359.32787	-209.87235	436.80980	-928.23838	-203.62096	315.64369	-942.28174	-421.12750	621.73786	-480.38129	-310.49189	629.07846	-465.62488	-293.70022	610.78992	-403.42670	-429.24416	558.46778	-387.21220	-309.40992	562.07537	-379.38147	-437.73033	604.26501	-851.82122	-301.02491	617.68707	-870.44552	-435.03360	509.07665	-912.53540	-297.42297	519.50074	-925.49526	-586.33810	608.16622	-528.11331	-764.57405	560.01615	-606.63076	-584.43092	604.22067	-798.33936	-761.02390	559.47026	-702.71008	-700.90005	1085.72738	-646.30402	-627.48856	1006.53872	-464.50572	-612.31872	1040.97511	-815.58908	-567.06295	998.17730	-624.65538	-568.03353	996.00748	-666.17791	-585.04163	861.00904	-382.10490	-591.75536	625.99884	-383.32296	-558.41529	674.02063	-310.93721	-446.12398	748.72598	-411.27519	-360.91173	784.84288	-488.67134	-331.40648	755.13807	-477.43949	-578.28697	885.49306	-908.95670	-624.61229	656.33528	-913.77961	-571.54501	695.25860	-968.64146	-479.48592	760.47844	-848.56996	-382.84451	783.20977	-781.07295	-357.57879	747.46380	-801.72445	-613.77984	505.06285	-560.97353	-610.44973	492.28315	-773.95692	-617.66969	504.04364	-567.28542	-611.08452	503.03051	-745.53338	
658	6.57000000	-200.18623	529.99077	-392.02535	-144.07042	413.76511	-397.71959	-283.60052	102.27873	-407.48752	-347.44546	68.01015	-461.43140	-163.49273	38.59625	-343.47894	-115.99938	61.36569	-410.21865	-194.13923	520.18493	-905.25768	-128.48139	427.44909	-891.12202	-254.03467	93.97173	-887.35888	-321.27610	69.29207	-841.77236	-113.79409	35.30893	-907.35422	-86.44120	61.36288	-837.76029	-159.37880	300.25005	-418.43878	-212.08229	413.36781	-359.71403	-219.72788	296.59660	-359.37512	-210.63959	436.94410	-928.39376	-204.06462	315.78591	-942.24702	-422.77848	621.81461	-480.32801	-311.98348	629.36840	-465.24207	-295.14546	611.05751	-403.32594	-430.75382	558.58293	-387.00497	-310.84263	562.37359	-379.03548	-438.84163	604.48884	-852.66320	-302.25925	617.90269	-870.73531	-436.03973	509.01832	-912.91335	-298.40857	519.70833	-925.93635	-587.65348	607.41840	-528.99794	-766.91795	557.60254	-606.62442	-587.83750	604.26193	-799.19874	-763.46593	557.54765	-702.43948	-710.88035	1084.09804	-645.83830	-636.11378	1005.87707	-463.75771	-621.51714	1040.81987	-815.10553	-575.65773	998.52620	-624.16512	-576.73299	996.28223	-665.41024	-590.61706	861.29342	-381.58935	-592.03029	625.38952	-382.62583	-559.08957	674.74786	-310.99335	-446.53801	749.26523	-411.87247	-361.15495	784.98405	-489.29543	-331.62722	755.38293	-477.76840	-583.91666	886.58380	-908.71152	-624.32445	656.48203	-914.36975	-571.98303	696.68301	-968.87179	-480.18138	761.78508	-847.92797	-384.00886	784.74437	-780.30904	-358.36610	749.55192	-801.36869	-614.77384	504.05856	-562.00510	-612.78105	491.97844	-775.04227	-619.11256	502.91348	-568.63896	-612.69196	502.81493	-746.86883	
659	6.58000000	-201.44349	530.64981	-391.59084	-145.22604	414.31682	-397.14022	-283.51228	102.35741	-407.35249	-347.42209	68.02563	-461.49292	-163.48582	38.60489	-343.48470	-115.91709	61.43921	-410.16269	-195.25910	520.39384	-905.27709	-129.36353	427.79789	-891.19474	-253.93140	94.04716	-887.42889	-321.30838	69.25573	-841.76506	-113.78402	35.30185	-907.35020	-86.42560	61.38342	-837.82404	-160.08724	300.69072	-418.09581	-213.28657	413.72169	-359.34040	-220.17866	296.49745	-359.65595	-211.42855	437.11822	-928.63311	-204.50690	315.81234	-942.21170	-424.49743	622.12982	-480.35953	-313.49681	629.64422	-465.01144	-296.73508	611.28089	-402.99412	-432.35512	558.80824	-386.63480	-312.38997	562.61127	-378.73807	-439.98616	604.78373	-853.32192	-303.47113	617.91863	-871.03436	-437.11950	508.86183	-913.27696	-299.50527	519.62355	-925.94776	-589.12190	606.44819	-530.41845	-769.29627	555.21755	-606.72853	-591.74573	603.70601	-800.57531	-765.77033	555.61200	-702.13163	-720.80652	1082.40331	-645.31961	-644.76782	1005.11151	-463.08412	-630.64870	1040.67101	-814.56246	-584.30481	998.87055	-623.55037	-585.29383	996.56837	-664.82674	-596.15936	861.55018	-381.27672	-592.10145	624.88783	-381.99721	-559.63384	675.64529	-311.14514	-446.80270	749.74054	-412.67157	-361.19135	785.17713	-489.90477	-331.70937	755.72157	-478.02604	-589.46067	887.71166	-908.34825	-623.96606	656.79362	-914.89035	-572.39110	698.33384	-969.10295	-479.87306	762.89318	-847.25329	-385.03910	786.38075	-779.42237	-359.05658	751.71470	-800.99389	-615.88037	502.89947	-563.31420	-615.59404	491.20565	-776.38385	-621.12350	501.49371	-570.53278	-614.53692	502.23140	-748.73113	
660	6.59000000	-202.86924	531.14488	-391.31352	-146.37109	414.81890	-396.64737	-283.44843	102.42707	-407.22759	-347.37397	68.09227	-461.59219	-163.48862	38.60112	-343.51689	-115.89927	61.49186	-410.09066	-196.43897	520.54704	-905.35629	-130.37066	428.26500	-891.19932	-253.82845	94.12964	-887.50461	-321.37861	69.15350	-841.70966	-113.77399	35.27512	-907.35397	-86.41008	61.40739	-837.87989	-160.81869	301.15024	-417.82416	-214.46805	414.02824	-358.95156	-220.98759	296.68383	-359.56682	-212.33887	437.36902	-928.96577	-205.10353	315.95729	-942.42509	-426.19614	622.38483	-480.52329	-315.03099	629.89502	-464.87136	-298.40829	611.50774	-402.46939	-433.83976	558.83212	-386.52966	-313.98649	562.74959	-378.62326	-441.30530	604.78029	-853.66431	-304.60353	617.58765	-870.99922	-438.29097	508.53797	-913.31481	-300.68705	519.45473	-925.92412	-590.79943	605.62570	-531.81817	-771.67184	552.82685	-606.88391	-595.26089	601.84817	-801.90029	-767.61706	553.23340	-702.18998	-730.63058	1080.56431	-644.80669	-653.42872	1004.30322	-462.48009	-639.65502	1040.51079	-814.05338	-592.97706	999.21303	-622.83640	-593.87192	996.97401	-664.37469	-601.66612	861.80508	-381.02878	-592.39507	624.98971	-381.62419	-560.04796	676.69047	-311.39421	-446.93170	750.38239	-413.37267	-361.06699	785.37674	-490.46470	-331.71628	755.96032	-478.48268	-594.85735	888.89038	-907.92960	-623.55825	657.30467	-915.26852	-572.77729	700.18191	-969.29631	-479.70688	764.20032	-846.39725	-385.90735	788.14915	-778.40231	-359.66996	753.96354	-800.50838	-617.18985	501.76642	-564.15245	-618.05582	489.34122	-777.17919	-623.56260	499.98386	-572.05995	-615.98561	500.74264	-750.19364	
661	6.60000000	-204.51433	531.36441	-391.14566	-147.53206	415.26705	-396.33274	-283.42792	102.44941	-407.12124	-347.33200	68.15701	-461.66975	-163.50478	38.59127	-343.55471	-115.90015	61.55209	-410.00863	-197.72921	520.75704	-905.53260	-131.39310	428.71852	-891.20309	-253.73536	94.21027	-887.57944	-321.38667	69.07380	-841.68110	-113.75927	35.24611	-907.36445	-86.39658	61.42711	-837.90511	-161.59923	301.64232	-417.52016	-215.63707	414.25409	-358.60683	-221.91025	297.00196	-359.27813	-213.39515	437.63740	-929.31504	-205.84627	316.27871	-942.80959	-427.93836	622.19291	-480.81233	-316.68073	630.14114	-464.59170	-300.07500	611.74882	-402.08996	-435.25974	558.64546	-386.83718	-315.58533	562.87801	-378.50892	-442.74619	604.54193	-854.59730	-305.74122	617.30237	-870.86520	-439.56531	508.17366	-913.12328	-301.93823	519.45622	-926.17703	-592.80229	605.41116	-532.68589	-773.94136	550.47169	-607.01673	-598.21564	600.32556	-802.69583	-769.35769	550.73588	-702.45742	-740.40672	1078.60796	-644.27483	-662.08850	1003.46572	-461.83168	-648.52538	1040.29909	-813.48948	-601.62080	999.53271	-622.12405	-602.48091	997.32221	-663.74601	-607.14723	862.13769	-380.69213	-592.95552	625.46651	-381.34526	-560.43959	677.82498	-311.69394	-446.98358	751.28880	-413.88107	-360.81861	785.54172	-491.00777	-331.60444	756.06424	-479.09101	-600.14478	890.13535	-907.53256	-623.08245	658.07974	-915.43979	-573.15567	702.11926	-969.23556	-480.09818	765.79067	-845.45555	-386.60992	789.93602	-777.21955	-360.14869	756.28858	-799.85560	-618.49727	501.12487	-564.50274	-619.76893	487.76824	-777.47591	-625.61316	499.02598	-572.87710	-617.06131	499.51913	-750.94276	
